<?xml version="1.0" standalone="no"?>
<!DOCTYPE svg PUBLIC "-//W3C//DTD SVG 20010904//EN"
 "http://www.w3.org/TR/2001/REC-SVG-20010904/DTD/svg10.dtd">
<svg version="1.0" xmlns="http://www.w3.org/2000/svg"
 width="512.000000pt" height="512.000000pt" viewBox="0 0 512.000000 512.000000"
 preserveAspectRatio="xMidYMid meet">
<metadata>
Created by potrace 1.14, written by Peter Selinger 2001-2017
</metadata>
<g transform="translate(0.000000,512.000000) scale(0.100000,-0.100000)"
fill="#000000" stroke="none">
<path d="M2477 5044 c-1 -1 -47 -5 -102 -8 -400 -27 -819 -168 -1165 -393
-344 -224 -650 -559 -843 -923 -86 -162 -194 -450 -223 -595 -2 -11 -11 -54
-19 -95 -31 -157 -43 -303 -40 -510 2 -113 6 -221 9 -240 3 -19 8 -57 12 -84
3 -27 8 -58 10 -70 9 -40 25 -121 30 -146 12 -58 69 -242 101 -325 44 -113
151 -329 192 -389 17 -24 31 -47 31 -51 0 -11 133 -191 200 -270 380 -447 909
-749 1480 -844 65 -11 90 -14 210 -27 70 -7 360 -7 407 0 15 2 56 7 91 11 l62
7 0 727 0 727 76 34 c236 103 444 317 547 560 63 149 83 256 81 430 -1 112 -6
150 -31 245 -8 33 -18 71 -21 85 -10 46 -111 234 -161 300 -94 124 -222 231
-362 304 -95 48 -129 60 -130 43 0 -7 -1 -255 -2 -552 l-2 -540 -26 -56 c-88
-187 -315 -263 -492 -164 -61 34 -118 96 -151 165 l-31 65 0 548 c0 301 -3
547 -6 547 -14 0 -116 -45 -151 -67 -21 -13 -41 -23 -44 -23 -4 0 -40 -24 -79
-54 -200 -151 -338 -355 -402 -594 -23 -85 -26 -117 -27 -262 -1 -107 4 -184
12 -220 79 -322 257 -564 528 -717 39 -22 92 -48 117 -58 28 -11 47 -24 48
-34 1 -25 1 -652 0 -693 l-1 -37 -92 25 c-322 85 -585 238 -823 479 -258 260
-417 567 -490 950 -27 146 -27 426 1 605 11 74 67 269 101 355 229 574 749
998 1349 1100 22 4 50 9 64 11 47 10 395 13 450 4 30 -4 75 -11 100 -15 183
-27 430 -120 615 -232 238 -144 473 -380 610 -615 306 -521 332 -1162 69
-1691 -67 -135 -80 -158 -123 -222 -92 -134 -270 -326 -368 -398 l-43 -30 0
-409 c0 -224 1 -408 3 -408 5 0 139 69 162 83 379 234 624 464 841 794 78 118
187 322 225 422 63 167 113 333 135 446 2 11 6 31 9 45 2 14 7 48 11 75 3 28
8 53 10 56 16 27 23 411 10 539 -13 137 -17 164 -37 265 -89 468 -330 924
-663 1259 -150 151 -213 204 -365 311 -200 139 -471 269 -701 336 -97 29 -268
67 -330 74 -30 3 -62 8 -70 10 -38 10 -384 26 -393 19z"/>
</g>
</svg>
